<?xml version="1.0" encoding="utf-8"?>
<!-- Generator: Adobe Illustrator 18.0.0, SVG Export Plug-In . SVG Version: 6.00 Build 0)  -->
<!DOCTYPE svg PUBLIC "-//W3C//DTD SVG 1.1//EN" "http://www.w3.org/Graphics/SVG/1.1/DTD/svg11.dtd">
<svg version="1.1" id="レイヤー_1" xmlns="http://www.w3.org/2000/svg" xmlns:xlink="http://www.w3.org/1999/xlink" x="0px"
	 y="0px" viewBox="0 0 486.6 459.7" enable-background="new 0 0 486.6 459.7" xml:space="preserve">
<rect y="0" fill="#D7171B" width="486.7" height="459.9"/>
<g>
	<path fill="#FFFFFF" d="M200.1,137c0,3.2-2.7,6.1-5.7,6.1s-5.4-2.9-5.4-6.1c0-3.2,2.4-5.8,5.4-5.8S200.1,133.8,200.1,137z
		 M296.2,137c0,3.2-2.7,6.1-5.7,6.1s-5.4-2.9-5.4-6.1c0-3.2,2.4-5.8,5.4-5.8S296.2,133.8,296.2,137z"/>
	<path fill="#FFFFFF" d="M290.5,144.6c-3.7,0-6.9-3.5-6.9-7.6c0-4,3.1-7.3,6.9-7.3c3.9,0,7.2,3.3,7.2,7.3
		C297.7,141,294.3,144.6,290.5,144.6z M290.5,132.7c-2.2,0-3.9,1.9-3.9,4.3c0,2.4,1.8,4.6,3.9,4.6c2.2,0,4.2-2.2,4.2-4.6
		C294.7,134.7,292.7,132.7,290.5,132.7z M194.4,144.6c-3.7,0-6.9-3.5-6.9-7.6c0-4,3.1-7.3,6.9-7.3c3.9,0,7.2,3.3,7.2,7.3
		C201.6,141,198.3,144.6,194.4,144.6z M194.4,132.7c-2.2,0-3.9,1.9-3.9,4.3c0,2.4,1.8,4.6,3.9,4.6c2.2,0,4.2-2.2,4.2-4.6
		C198.6,134.7,196.7,132.7,194.4,132.7z"/>
</g>
<path fill="none" stroke="#FFFFFF" stroke-width="5" stroke-miterlimit="10" d="M137.7,248.9c0,0,105-85.9,213.7,0"/>
<line fill="none" stroke="#FFFFFF" stroke-width="4" stroke-miterlimit="10" x1="158.9" y1="103.7" x2="222.2" y2="122.8"/>
<line fill="none" stroke="#FFFFFF" stroke-width="4" stroke-miterlimit="10" x1="332.2" y1="103.7" x2="268.9" y2="122.8"/>
<text transform="matrix(1 0 0 1 175.3453 365.1353)" fill="#FFFFFF" font-family="'YuMin-Demibold-83pv-RKSJ-H'" font-size="35">怒った顔</text>
</svg>
