<?xml version="1.0" encoding="utf-8"?>
<!-- Generator: Adobe Illustrator 18.0.0, SVG Export Plug-In . SVG Version: 6.00 Build 0)  -->
<!DOCTYPE svg PUBLIC "-//W3C//DTD SVG 1.1//EN" "http://www.w3.org/Graphics/SVG/1.1/DTD/svg11.dtd">
<svg version="1.1" id="レイヤー_1" xmlns="http://www.w3.org/2000/svg" xmlns:xlink="http://www.w3.org/1999/xlink" x="0px"
	 y="0px" viewBox="0 0 486.6 459.7" enable-background="new 0 0 486.6 459.7" xml:space="preserve">
<rect x="0.5" y="0" fill="#139987" width="486.7" height="459.9"/>
<g>
	<path fill="#FFFFFF" d="M200.6,135c0,3.2-2.7,6.1-5.7,6.1s-5.4-2.9-5.4-6.1c0-3.2,2.4-5.8,5.4-5.8S200.6,131.8,200.6,135z
		 M296.7,135c0,3.2-2.7,6.1-5.7,6.1s-5.4-2.9-5.4-6.1c0-3.2,2.4-5.8,5.4-5.8S296.7,131.8,296.7,135z"/>
	<path fill="#FFFFFF" d="M291,142.6c-3.7,0-6.9-3.5-6.9-7.6c0-4,3.1-7.3,6.9-7.3c3.9,0,7.2,3.3,7.2,7.3
		C298.2,139,294.8,142.6,291,142.6z M291,130.7c-2.2,0-3.9,1.9-3.9,4.3c0,2.4,1.8,4.6,3.9,4.6c2.2,0,4.2-2.2,4.2-4.6
		C295.2,132.7,293.2,130.7,291,130.7z M194.9,142.6c-3.7,0-6.9-3.5-6.9-7.6c0-4,3.1-7.3,6.9-7.3c3.9,0,7.2,3.3,7.2,7.3
		C202.1,139,198.8,142.6,194.9,142.6z M194.9,130.7c-2.2,0-3.9,1.9-3.9,4.3c0,2.4,1.8,4.6,3.9,4.6c2.2,0,4.2-2.2,4.2-4.6
		C199.1,132.7,197.2,130.7,194.9,130.7z"/>
</g>
<path fill="none" stroke="#FFFFFF" stroke-width="5" stroke-miterlimit="10" d="M138.2,248.9c0,0,105-85.9,213.7,0"/>
<text transform="matrix(1 0 0 1 140.8456 365.1352)" fill="#FFFFFF" font-family="'YuMin-Demibold-83pv-RKSJ-H'" font-size="35">軽蔑してる顔</text>
</svg>
