<?xml version="1.0" encoding="utf-8"?>
<!-- Generator: Adobe Illustrator 18.0.0, SVG Export Plug-In . SVG Version: 6.00 Build 0)  -->
<!DOCTYPE svg PUBLIC "-//W3C//DTD SVG 1.1//EN" "http://www.w3.org/Graphics/SVG/1.1/DTD/svg11.dtd">
<svg version="1.1" id="レイヤー_1" xmlns="http://www.w3.org/2000/svg" xmlns:xlink="http://www.w3.org/1999/xlink" x="0px"
	 y="0px" viewBox="0 0 486.6 459.7" enable-background="new 0 0 486.6 459.7" xml:space="preserve">
<rect x="1.2" y="0.7" fill="#EAD33C" width="486.7" height="459.9"/>
<text transform="matrix(1 0 0 1 141.5551 365.7878)" fill="#FFFFFF" font-family="'YuMin-Demibold-83pv-RKSJ-H'" font-size="35">驚いている顔</text>
<g>
	<path fill="#FFFFFF" d="M201.1,126.7c0,3.2-2.7,6.1-5.7,6.1s-5.4-2.9-5.4-6.1c0-3.2,2.4-5.8,5.4-5.8S201.1,123.5,201.1,126.7z
		 M297.1,126.7c0,3.2-2.7,6.1-5.7,6.1s-5.4-2.9-5.4-6.1c0-3.2,2.4-5.8,5.4-5.8S297.1,123.5,297.1,126.7z"/>
	<path fill="#FFFFFF" d="M291.5,134.3c-3.7,0-6.9-3.5-6.9-7.6c0-4,3.1-7.3,6.9-7.3c3.9,0,7.2,3.3,7.2,7.3
		C298.6,130.7,295.3,134.3,291.5,134.3z M291.5,122.4c-2.2,0-3.9,1.9-3.9,4.3c0,2.4,1.8,4.6,3.9,4.6c2.2,0,4.2-2.2,4.2-4.6
		C295.6,124.4,293.7,122.4,291.5,122.4z M195.4,134.3c-3.7,0-6.9-3.5-6.9-7.6c0-4,3.1-7.3,6.9-7.3c3.9,0,7.2,3.3,7.2,7.3
		C202.6,130.7,199.2,134.3,195.4,134.3z M195.4,122.4c-2.2,0-3.9,1.9-3.9,4.3c0,2.4,1.8,4.6,3.9,4.6c2.2,0,4.2-2.2,4.2-4.6
		C199.6,124.4,197.6,122.4,195.4,122.4z"/>
</g>
<ellipse fill="none" stroke="#FFFFFF" stroke-width="5" stroke-miterlimit="10" cx="243.6" cy="229.9" rx="42.5" ry="47.1"/>
</svg>
